<?xml version="1.0" encoding="UTF-8"?>
<svg id="Layer_2" data-name="Layer 2" xmlns="http://www.w3.org/2000/svg" viewBox="0 0 1300 1300">
  <defs>
    <style>
      .cls-1 {
        fill: #e91a00;
      }

      .cls-2 {
        stroke-width: 11.56px;
      }

      .cls-2, .cls-3 {
        fill: #2fa572;
        stroke: #fff;
        stroke-miterlimit: 10;
      }

      .cls-3 {
        stroke-width: 10.63px;
      }
    </style>
  </defs>
  <g id="Layer_2-2" data-name="Layer 2">
    <g>
      <rect width="1300" height="1300" rx="258.33" ry="258.33"/>
      <path class="cls-1" d="M446.22,641.66c-69.98-34.05-115.16-78.71-135.56-133.98-15.12-40.97-10.85-75.44,12.79-103.42l72.71-59.65c25.24-23.68,32.39-50.29,21.49-79.84-5.45-14.76-14.29-28.36-26.53-40.78-37.77-40.11-88.03-60.29-150.8-60.55-20.59-.08-39.73,3.17-57.4,9.76-23,8.95-31.18,22.48-24.5,40.58,4.92,13.34,17,23.38,36.23,30.12,14.87,5.3,30.21,7.97,46.02,8.03,49.84.2,85.54-8.69,107.13-26.69.31-.47,1.17-.71,2.61-.7s2.42.72,2.95,2.15c.18.48-.03,1.19-.65,2.14-8.63,9.01-25.38,16.79-50.23,23.35-11.09,2.34-21.65,4.19-31.67,5.58-10.01,1.39-19.8,2.06-29.39,2.02-20.12-.08-38.66-3.01-55.63-8.79-24.07-8.18-39.09-20.37-45.07-36.57-3.51-9.53-3.09-18.09,1.29-25.68,11.51-23.26,43.14-34.79,94.88-34.59,59.9.24,113.81,17.35,161.74,51.31h1.44c19.17.08,37.7,7.18,55.57,21.28,17.89,14.11,30.34,30.69,37.37,49.74,12.66,34.3,8.8,64.02-11.59,89.15l-63.44,57.55c-12.24,10.9-20.24,23.23-24.02,37.01-3.76,13.79-3.79,28.29-.08,43.53,2.13-3.31,5.1-4.98,8.93-4.96,8.15.03,15.21,8.16,21.18,24.35,5.45,14.77,5.42,27.62-.13,38.53,17.33,21.01,39.16,40.01,65.52,56.99,26.36,16.99,51.95,28.63,76.75,34.92l28.89,4.4c3.84.02,6.28,1.45,7.33,4.31.53,1.43-.4,2.14-2.8,2.13-30.19-.12-64.65-11.21-103.41-33.24-39.88-22.52-70.19-47.61-90.94-75.29-30.5-19.14-48.84-37.06-55-53.74-2.11-5.72-1.24-8.57,2.58-8.55,5.28.02,14.46,4.82,27.55,14.38-8.6-32.38-1.18-60.89,22.25-85.54l66.25-59.68c21.53-24.64,26.13-53.65,13.82-87-5.8-15.72-16.15-30.15-31.05-43.3-14.9-13.14-30.27-20.46-46.13-21.95,22.8,17.7,38.33,37.74,46.59,60.13,11.43,30.98,4.8,59.01-19.91,84.13l-72.91,61.08c-24.83,26.07-30.38,57.68-16.67,94.84,23.38,63.37,78.32,110.44,164.79,141.24,49.27,16.84,91.16,25.34,125.66,25.48,41.21.16,70.83-11.61,88.87-35.32,18.05-23.71,19.68-55.58,4.91-95.6-16.52-44.78-46.52-82-90.01-111.68-40.85-27.75-84.53-41.73-131.01-41.91-14.2.42-21.65-.32-22.35-2.23-1.41-3.81,7.72-5.68,27.36-5.6,46,.18,94.08,17.03,144.23,50.53,53.08,34.94,87.89,74.81,104.41,119.59,16.35,44.31,8.47,78.05-23.64,101.24-25.55,18.92-62.51,28.29-110.91,28.1-60.37-.24-119.93-14.52-178.7-42.82Z"/>
      <g>
        <path class="cls-2" d="M202.7,716.74c-32.11,42.27-54.1,120.64-64.22,180.96-11.29,67.37-13.76,136.05,0,202.1,101.68-.88,203.35-1.76,305.03-2.64,5.78-42.78,13.1-135.63-22.93-240.4-27.39-79.65-68.27-132.57-94.03-161.15-2.2,4.25-21.22,39.52-59.63,44.91-35.94,5.04-60.65-20.03-64.22-23.78Z"/>
        <ellipse class="cls-3" cx="249.71" cy="616.39" rx="72.24" ry="83.22"/>
        <path class="cls-2" d="M774.91,488.23c-10.46,1.52-20.77,3.22-30.92,5.07-4.6-11.31-8.65-21.15-11.99-29.19-5.28-12.74-16.36-20.96-28.61-21.22-4.69-.1-9.37-.2-14.06-.3-15.9-.34-29.65,12.67-32.46,30.7-.02.13-.04.27-.06.4-2.37,15.12-4.83,29.15-7.38,42.35-138.99,41.74-240.69,109.64-297.65,153.14,14.97,11,36.82,30.13,56.19,60.76,27.13,42.91,42.92,75.63,45.66,98.11,37.48-49.68,82.19-98.04,152.63-150.03-10.56,34.57-21.99,73.12-34.32,123.25-26.29,106.96-27.69,148.83-27.52,173.04.37,52.73,8.68,96.11,16.05,125.48h383l-72.24-71.33c2.95-14.64,6.79-37.65,8.03-66.04,3.11-71.56-12.57-126.81-25.23-167.75-21.97-71.1-49.61-146.91-73.94-210.15,179.02-64.81,339.98-36.81,404.19-22.32,9.56-7.93,19.11-15.85,28.67-23.78-82.44-31.82-240.35-78.87-438.05-50.19Z"/>
      </g>
    </g>
  </g>
</svg>