<?xml version="1.0" encoding="UTF-8"?>
<svg id="Layer_2" data-name="Layer 2" xmlns="http://www.w3.org/2000/svg" viewBox="0 0 1300 1300">
  <defs>
    <style>
      .cls-1 {
        stroke-width: 4.02px;
      }

      .cls-1, .cls-2, .cls-3, .cls-4 {
        fill: #fff;
        stroke: #231f20;
      }

      .cls-1, .cls-2, .cls-3, .cls-4, .cls-5 {
        stroke-miterlimit: 10;
      }

      .cls-2 {
        stroke-width: 4.03px;
      }

      .cls-3 {
        stroke-width: 4.4px;
      }

      .cls-4 {
        stroke-width: 4.05px;
      }

      .cls-6 {
        fill: #e91a00;
      }

      .cls-5 {
        fill: #2fa572;
        stroke: #fff;
        stroke-width: 6.12px;
      }
    </style>
  </defs>
  <g id="Layer_2-2" data-name="Layer 2">
    <g>
      <rect width="1300" height="1300" rx="258.33" ry="258.33"/>
      <g>
        <path class="cls-6" d="M217.75,416.09c-48.4.19-85.35-5.78-110.87-17.92-32.08-14.87-39.91-36.57-23.5-65.1,16.59-28.83,51.45-54.53,104.58-77.09,50.2-21.62,98.31-32.53,144.3-32.71,19.64-.08,28.76,1.11,27.35,3.56-.71,1.23-8.16,1.72-22.35,1.47-46.48.19-90.17,9.24-131.06,27.15-43.53,19.16-73.58,43.15-90.17,71.98-14.83,25.77-13.24,46.27,4.77,61.5,18,15.23,47.6,22.76,88.82,22.6,34.5-.14,76.4-5.66,125.69-16.57,86.51-19.94,141.51-50.3,164.99-91.1,13.77-23.93,8.25-44.26-16.53-60.99l-72.82-39.19c-24.67-16.12-31.26-34.15-19.79-54.1,8.29-14.42,23.85-27.33,46.67-38.75-15.87.98-31.25,5.71-46.17,14.19-14.92,8.48-25.29,17.78-31.11,27.9-12.36,21.48-7.8,40.13,13.7,55.96l66.16,38.3c23.4,15.82,30.78,34.16,22.13,55,13.11-6.17,22.3-9.27,27.57-9.29,3.83-.02,4.69,1.82,2.57,5.5-6.18,10.74-24.54,22.29-55.07,34.65-20.78,17.84-51.13,34.03-91.04,48.57-38.78,14.23-73.27,21.41-103.45,21.53-2.4,0-3.33-.45-2.8-1.37,1.06-1.84,3.5-2.77,7.34-2.78l28.9-2.87c24.81-4.08,50.42-11.61,76.8-22.57,26.39-10.97,48.25-23.22,65.61-36.76-5.53-7.02-5.55-15.28-.08-24.79,6-10.43,13.07-15.66,21.22-15.69,3.83-.02,6.8,1.05,8.93,3.18,3.73-9.81,3.72-19.14-.02-28.01-3.75-8.86-11.74-16.78-23.96-23.78l-63.36-36.93c-20.36-16.14-24.17-35.25-11.47-57.34,7.06-12.27,19.54-22.95,37.45-32.06,17.89-9.1,36.43-13.69,55.6-13.77h1.44c47.98-21.93,101.92-33.01,161.82-33.25,51.75-.21,83.35,7.17,94.83,22.12,4.36,4.88,4.78,10.39,1.25,16.52-6,10.43-21.05,18.3-45.12,23.59-16.97,3.74-35.52,5.65-55.64,5.73-9.59.04-19.39-.38-29.39-1.26-10.01-.88-20.57-2.06-31.66-3.55-24.84-4.18-41.58-9.17-50.2-14.95-.61-.61-.82-1.07-.64-1.37.53-.92,1.51-1.38,2.95-1.39s2.3.15,2.61.45c21.56,11.55,57.25,17.22,107.09,17.02,15.81-.06,31.15-1.8,46.03-5.23,19.24-4.36,31.33-10.84,36.27-19.43,6.71-11.66-1.45-20.35-24.44-26.07-17.65-4.21-36.79-6.28-57.38-6.2-62.77.25-113.06,13.31-150.88,39.17-12.26,8.01-21.12,16.77-26.59,26.28-10.95,19.02-3.83,36.13,21.38,51.33l72.63,38.27c23.6,17.97,27.82,40.14,12.64,66.52-20.48,35.59-65.73,64.39-135.75,86.4-58.81,18.29-118.39,27.56-178.76,27.8Z"/>
        <path class="cls-6" d="M559.79,409.23c-33.06.13-42.71-12.8-28.95-38.79,13.76-25.99,40.09-52.7,78.99-80.13,44.67-31.11,84.26-46.73,118.76-46.87,5.27-.02,7.55.64,6.85,1.97-.53,1-6.65,3.52-18.34,7.56-28.77,10.09-57.64,25.34-86.6,45.74-31.12,21.75-51.25,41.28-60.42,58.6-14.29,26.99-6.82,40.43,22.41,40.31,18.2-.07,40.97-5.15,68.31-15.24,11.87-4.37,23.28-8.99,34.23-13.85,10.93-4.86,21.26-10.14,30.97-15.84,3.45-2.01,7.65-4.52,12.59-7.53,4.93-3.01,10.47-6.69,16.6-11.04,6.96-5.02,11.63-7.53,14.03-7.54l.91.99c-.53,1-4.19,3.84-10.97,8.52-12.74,8.7-27.01,17.15-42.83,25.36-15.82,8.22-33.34,16.02-52.55,23.41-42.01,16.13-76.66,24.25-103.97,24.36ZM731.32,293.82c-6.23.02-8.02-2.46-5.37-7.46,1.06-2,4.88-6.5,11.46-13.51,7.05-7.01,11.82-12.84,14.29-17.52,7.94-15,3.28-22.46-13.97-22.39-9.11.04-21.45,2.58-37.03,7.63-15.89,4.72-24.07,7.08-24.55,7.08-1.92,0-2.61-.49-2.08-1.49,2.47-4.66,14.11-9.04,34.91-13.11,16.14-3.38,29.24-5.11,39.3-5.15,25.87-.1,33.08,10.68,21.61,32.34-3.18,6-8.3,12.5-15.35,19.52-9.74,9.35-17.47,14.04-23.22,14.06Z"/>
        <path class="cls-6" d="M863.91,401.03c-12.94.05-20.53-4.57-22.78-13.88-1.69-7.64.11-16.46,5.4-26.46,2.65-5,6.19-10.58,10.66-16.75,4.45-6.17,9.82-12.92,16.11-20.27-54.88,46.78-98.38,70.23-130.47,70.36-19.65.08-24.79-8.71-15.44-26.38,14.99-28.32,50.15-57.73,105.5-88.21,56.17-31.15,103.9-46.81,143.19-46.96,18.69-.07,25.03,5.56,19.03,16.88-7.41,14-28.24,28.05-62.47,42.15-26.6,24.05-46.6,48.74-60,74.07-10.05,19-9.1,28.47,2.89,28.42,16.77-.07,56.63-21.18,119.58-63.33,4.28-2.67,7.15-4.02,8.58-4.03s1.8.66,1.1,1.99c-.88,1.67-2.73,3.34-5.52,5.01-66.76,44.83-111.88,67.29-135.35,67.38ZM753.9,378.53c30.18-.12,71.75-23.56,124.72-70.33-4.2.69-7.97,1.28-11.35,1.79-3.39.51-6.27.77-8.66.78-1.92,0-2.61-.49-2.08-1.49.88-1.66,5.11-3.34,12.71-5.04l27.04-9.09c3.95-5.67,12.86-13.02,26.73-22.06,14.03-9.36,25.13-14.07,33.28-14.1,2.87-.01,3.52,1.48,1.93,4.48-1.24,2.34-4.38,6-9.41,11.01,11.54-7.36,19.17-14.54,22.88-21.54,4.06-7.66,1.05-11.48-9.01-11.44-23.96.1-64.07,16.72-120.34,49.86-55.92,32.48-88.64,57.72-98.17,75.71-4.06,7.67-.82,11.48,9.73,11.43Z"/>
        <path class="cls-6" d="M954.04,404.16c-4.31.02-5.32-2.15-3.03-6.47l.53-1c4.39-4.67,9.51-10.51,15.37-17.52s12.7-15.18,20.51-24.52c7.81-9.34,17.62-21.1,29.43-35.28,11.81-14.18,25.76-30.61,41.87-49.3l-.95-14.46c-.11-4.32-.3-8.48-.57-12.47,1.23-2.33,6.45-4.52,15.66-6.55,27.3-6.42,44.31-9.65,51.02-9.68,7.19-.03,9.99,1.46,8.4,4.46.05-1-23.46,20.38-70.52,64.13l-2.38,4.5c-4.94,9.33-9.56,14.01-13.88,14.02-.48,0-.94-.5-1.36-1.49-8.25,8.35-16.15,16.28-23.71,23.79-7.56,7.51-14.72,14.95-21.48,22.28,16.88-12.04,33.87-23.58,50.96-34.62,17.07-11.04,34.16-21.41,51.26-31.13,51.28-29.14,88.66-43.75,112.14-43.85,11.02-.04,14.94,2.93,11.77,8.93-1.06,2-3.1,4.5-6.12,7.51-9.84,11.35-22.65,25.62-38.43,42.8-15.8,17.19-34.25,37.14-55.33,59.83,35.36-14.44,65.04-29.85,89.02-46.25,3.45-2.01,5.65-3.02,6.62-3.02,1.44,0,1.8.66,1.1,1.99-.36.67-1.69,1.84-4.01,3.51-34.85,26.08-71.41,46.85-109.71,62.29-2.98,2.01-6.62,3.02-10.93,3.04-3.36.01-4.33-1.31-2.91-3.98.35-.66,2.7-3.75,7.05-9.26,4.35-5.5,10.36-13.26,18.05-23.27,6.27-7.34,12.22-14.51,17.84-21.52,5.61-7.01,11.32-14.18,17.13-21.52,11.99-16.34,21.73-30.68,29.22-43.02-12.31,3.38-26.55,8.84-42.74,16.38-16.19,7.55-34.72,17.02-55.56,28.41-18.89,10.39-35.67,20.18-50.34,29.38-14.68,9.21-27.25,17.82-37.7,25.84-11.48,9.02-21.63,18.71-30.44,29.05-4.74,5.33-9.03,8.02-12.86,8.03ZM1070.19,256.55l15.2-16.52c-3.11,1.35-8.54,3.03-16.3,5.05l1.1,11.47Z"/>
      </g>
      <g>
        <path class="cls-5" d="M479.07,598.4c-18.58,20.47-31.3,58.44-37.15,87.65-6.53,32.63-7.96,65.9,0,97.89,58.82-.43,117.65-.85,176.47-1.28,3.35-20.72,7.58-65.7-13.27-116.44-15.85-38.58-39.5-64.21-54.4-78.06-1.28,2.06-12.27,19.14-34.5,21.75-20.79,2.44-35.09-9.7-37.15-11.52Z"/>
        <ellipse class="cls-5" cx="509.92" cy="551.37" rx="45.44" ry="43.83"/>
        <path class="cls-5" d="M810.11,487.71c-6.05.74-12.01,1.56-17.89,2.46-2.66-5.48-5.01-10.24-6.94-14.14-3.06-6.17-9.46-10.15-16.55-10.28-2.71-.05-5.42-.1-8.13-.15-9.2-.16-17.15,6.14-18.78,14.87-.01.06-.02.13-.04.19-1.37,7.33-2.79,14.12-4.27,20.51-80.41,20.22-139.25,53.11-172.2,74.18,8.66,5.33,21.3,14.59,32.51,29.43,15.69,20.78,24.83,36.63,26.42,47.52,21.68-24.06,47.55-47.49,88.3-72.67-6.11,16.74-12.72,35.42-19.85,59.7-15.21,51.81-16.02,72.09-15.92,83.81.21,25.54,5.02,46.55,9.29,60.78h221.58l-41.79-34.55c1.71-7.09,3.93-18.24,4.64-31.99,1.8-34.66-7.27-61.43-14.6-81.26-12.71-34.44-28.7-71.16-42.78-101.79,103.57-31.39,196.69-17.83,233.84-10.81,5.53-3.84,11.06-7.68,16.59-11.52-47.7-15.41-139.05-38.2-253.42-24.31Z"/>
      </g>
      <g>
        <path class="cls-4" d="M844.04,905.09c43.76-3.05,83.1-1.02,116.22,2.92-4.29,10.91-9.16,29.17-4.08,51.09,5.9,25.44,21.75,40.83,42.82,61.31,10.27,9.98,16.44,14.06,24.47,14.6,14.63.98,26.78-10.4,38.74-21.9,15.49-14.9,39.99-38.45,38.74-72.98-.51-14.03-5.12-25.93-10.19-35.03,38.06,1.95,76.12,3.89,114.18,5.84,27.72,35.1,21.44,60.99,18.35,70.06-13.45,39.44-70.3,64.71-85.64,71.52-37.03,16.46-63.12,17.58-71.36,35.03-2.24,4.74-5.04,14.67,10.19,37.95,10.94,16.71,34.86,45.94,87.67,72.98-36.59,3.37-79.9,5.52-128.45,4.38-52.36-1.23-98.42-6-136.61-11.68,36.15-21.6,55.26-44.02,65.25-58.39,13.26-19.06,26.13-37.58,16.31-54.01-8.67-14.51-27.49-14.8-63.21-30.65-6.95-3.08-51.64-23.26-77.48-51.09-10.57-11.38-32.95-40.16-26.51-89.04,9.76-1.18,19.96-2.18,30.58-2.92Z"/>
        <path class="cls-1" d="M841.41,928.97c-5.8-7.1-16.3-17.97-33.59-26.64-58.57-29.36-153.15-12.53-203.53,29.6-8.5,7.11-49.09,41.05-35.57,69.56,17.39,36.66,119.99,55.41,175.87,37,6.5-2.14,17.95-6.63,33.59-5.92,21.7.98,50.82,11.93,59.28,34.04,4.33,11.32,5.26,30.84-9.88,39.96-20.39,12.29-55.53-2.92-110.66-16.28-23.89-5.79-55.09-12.09-93.25-16.54-13.43-1.57-23,9.6-15.48,18.08,3.77,4.24,7.22,9.14,9.92,14.75,9.52,19.76,4.25,36.87,1.98,42.92,21.85,4.05,56.55,10.83,98.8,20.72,74.28,17.39,90.34,25.31,126.47,25.16,17.25-.07,87.73-.36,114.61-35.52,22.04-28.83,1.64-63.95-5.93-76.96-3.83-6.59-32.39-54.37-94.85-68.08-47.56-10.44-67.94,9.14-142.27-2.96-41.93-6.83-51.04-15.6-53.35-22.2-3.02-8.64,3.94-18.31,11.86-23.68,22.45-15.24,64.75-4.18,75.09-1.48,33.48,8.76,40.54,21.51,55.33,19.24,12.04-1.85,26.2-13.19,35.57-54.76Z"/>
        <path class="cls-3" d="M669.83,981.26c-22.18-29.03-41.18-53.9-82.18-68.03-70.09-24.17-142.42,4.42-151.39,8.1-74.11,30.39-94.97,91.21-108.14,129.59-18.11,52.79-12.55,100.62-2.16,136.07,36.77-1.62,73.53-3.24,110.3-4.86,4.33-13.5,8.65-27,12.98-40.5,36.77-.54,73.53-1.08,110.3-1.62-3.6,12.96-7.21,25.92-10.81,38.88,49.74-3.24,99.49-6.48,149.23-9.72,3.35-7.78,7.78-19.5,10.81-34.02,16.32-78.02-27.87-139.41-38.93-153.89ZM585.49,1093.03c-14.07,6.47-27.14-8.79-69.21-9.72-32.44-.72-43.24,7.95-54.07,1.62-16.92-9.89-9.68-42.19,8.65-63.18,5.35-6.12,26.62-30.47,58.39-29.16,25.14,1.04,41.01,17.49,47.58,24.3,25.27,26.18,28.48,67.01,8.65,76.13Z"/>
        <path class="cls-2" d="M416.96,903.61c-.81,4.99-32.1,11.3-53.54,27.44-13.54,10.19-33.4,32.68-35.18,40.74-15.62-5.31-44.42-12.68-75.23-5.93-9.64,2.11-26.22,5.74-29.7,14.83-4.77,12.47,18.4,26.65,25.74,31.14,18.18,11.13,38.14,14.92,51.47,16.31-14.02,2.12-34.64,7.03-53.45,19.28-10.87,7.08-33.93,22.09-29.7,38.55,3.72,14.48,26.45,21.85,27.72,22.24,31.1,9.7,51.81-10.53,112.85-22.24,23.06-4.42,68.21-12.67,116.81-1.48,30.16,6.94,51.91,19.12,65.33,28.17-16.5,24.71-33,49.43-49.49,74.14-10.01-6.64-25.84-15.47-47.51-20.76-48.19-11.77-81.96,4.49-146.5,14.83-59.63,9.55-125.4,20.09-174.22-4.45-32.32-16.24-60.04-49.28-53.45-84.52,8.09-43.27,63.16-64.46,69.29-66.73,15.26-5.64,29.44-7.91,39.6-8.9-52.64-10.42-88.89-34.62-89.09-57.83-.3-35.9,85.73-55.41,102.95-59.31,103.85-23.55,226.94-5.44,225.32,4.48Z"/>
      </g>
    </g>
  </g>
</svg>