<?xml version="1.0" encoding="UTF-8"?>
<svg id="Layer_2" data-name="Layer 2" xmlns="http://www.w3.org/2000/svg" viewBox="0 0 1300 1300">
  <defs>
    <style>
      .cls-1 {
        stroke-width: 4.02px;
      }

      .cls-1, .cls-2, .cls-3, .cls-4 {
        stroke: #231f20;
      }

      .cls-1, .cls-2, .cls-3, .cls-4, .cls-5 {
        fill: #fff;
      }

      .cls-1, .cls-2, .cls-3, .cls-4, .cls-6 {
        stroke-miterlimit: 10;
      }

      .cls-2 {
        stroke-width: 4.03px;
      }

      .cls-3 {
        stroke-width: 4.4px;
      }

      .cls-4 {
        stroke-width: 4.05px;
      }

      .cls-7 {
        fill: #e91a00;
      }

      .cls-6 {
        fill: #2fa572;
        stroke: #fff;
        stroke-width: 10.14px;
      }
    </style>
  </defs>
  <g id="Layer_2-2" data-name="Layer 2">
    <g>
      <rect width="1300" height="1300" rx="258.33" ry="258.33"/>
      <g>
        <path class="cls-5" d="M689.35,222.24c-23.35.09-30.16-6.89-20.43-20.95,9.74-14.06,28.35-28.51,55.85-43.37,31.58-16.84,59.55-25.32,83.92-25.41,3.72-.01,5.33.34,4.84,1.06-.37.54-4.7,1.91-12.96,4.1-20.33,5.47-40.74,13.74-61.21,24.78-22,11.78-36.23,22.35-42.72,31.72-10.11,14.6-4.85,21.86,15.8,21.78,12.86-.05,28.95-2.81,48.26-8.28,8.39-2.37,16.45-4.87,24.19-7.51,7.73-2.63,15.02-5.49,21.89-8.58,2.44-1.09,5.41-2.45,8.9-4.08,3.49-1.63,7.4-3.62,11.74-5.98,4.92-2.72,8.22-4.08,9.92-4.08l.64.54c-.37.54-2.96,2.08-7.75,4.62-9.01,4.71-19.09,9.29-30.27,13.74-11.18,4.45-23.57,8.68-37.14,12.69-29.69,8.75-54.17,13.16-73.47,13.24ZM810.61,159.73c-4.4.02-5.66-1.33-3.79-4.03.75-1.08,3.45-3.52,8.1-7.31,4.99-3.79,8.36-6.95,10.11-9.48,5.62-8.11,2.33-12.14-9.85-12.09-6.43.03-15.15,1.41-26.16,4.15-11.23,2.56-17.01,3.84-17.35,3.84-1.36,0-1.84-.26-1.47-.8,1.75-2.52,9.97-4.89,24.67-7.11,11.4-1.84,20.66-2.78,27.77-2.81,18.28-.07,23.36,5.75,15.25,17.47-2.25,3.24-5.87,6.76-10.86,10.56-6.88,5.06-12.35,7.6-16.41,7.62Z"/>
        <path class="cls-5" d="M904.2,217.6c-9.14.04-14.5-2.46-16.08-7.49-1.19-4.13.09-8.9,3.83-14.31,1.87-2.7,4.38-5.72,7.54-9.06,3.15-3.34,6.95-6.99,11.39-10.97-38.8,25.32-69.54,38.03-92.22,38.12-13.88.06-17.51-4.69-10.89-14.25,10.61-15.32,35.47-31.24,74.59-47.76,39.7-16.88,73.43-25.37,101.19-25.48,13.2-.05,17.68,2.99,13.43,9.11-5.24,7.57-19.97,15.18-44.16,22.83-18.81,13.02-32.95,26.38-42.44,40.08-7.12,10.27-6.44,15.4,2.02,15.36,11.84-.05,40.02-11.49,84.52-34.31,3.03-1.45,5.05-2.18,6.07-2.18s1.27.36.77,1.08c-.63.9-1.93,1.81-3.9,2.71-47.19,24.28-79.08,36.45-95.66,36.52ZM826.5,205.51c21.32-.09,50.7-12.78,88.15-38.1-2.96.37-5.63.7-8.02.98-2.39.28-4.43.42-6.12.43-1.36,0-1.84-.26-1.47-.8.62-.9,3.61-1.81,8.98-2.73l19.11-4.93c2.79-3.07,9.1-7.05,18.9-11.94,9.92-5.07,17.76-7.62,23.52-7.64,2.03,0,2.48.8,1.36,2.42-.87,1.26-3.1,3.25-6.66,5.96,8.15-3.98,13.55-7.87,16.17-11.66,2.87-4.14.75-6.2-6.36-6.18-16.93.07-45.27,9.08-85.05,27.04-39.53,17.6-62.66,31.26-69.4,40.99-2.87,4.15-.59,6.2,6.86,6.17Z"/>
        <path class="cls-5" d="M967.87,219.24c-3.05.01-3.76-1.16-2.14-3.5l.37-.54c3.1-2.53,6.72-5.69,10.87-9.48,4.14-3.79,8.98-8.21,14.51-13.27,5.52-5.05,12.46-11.42,20.82-19.09,8.35-7.67,18.22-16.56,29.61-26.68l-.66-7.82c-.08-2.33-.2-4.58-.4-6.74.87-1.26,4.56-2.45,11.07-3.55,19.29-3.49,31.31-5.25,36.05-5.27,5.08-.02,7.05.78,5.93,2.4.03-.54-16.59,11.03-49.86,34.71l-1.69,2.43c-3.5,5.05-6.77,7.58-9.81,7.59-.34,0-.66-.27-.96-.81-5.83,4.52-11.42,8.81-16.76,12.88-5.35,4.07-10.41,8.09-15.19,12.06,11.93-6.52,23.94-12.77,36.02-18.75,12.07-5.98,24.15-11.6,36.23-16.86,36.25-15.78,62.66-23.71,79.25-23.78,7.78-.03,10.55,1.58,8.31,4.82-.75,1.08-2.19,2.44-4.33,4.06-6.96,6.14-16.02,13.86-27.18,23.16-11.17,9.31-24.22,20.1-39.13,32.38,24.99-7.83,45.97-16.18,62.92-25.06,2.44-1.09,4-1.63,4.68-1.64,1.02,0,1.27.36.77,1.08-.25.36-1.2.99-2.83,1.9-24.63,14.12-50.48,25.37-77.54,33.75-2.11,1.09-4.68,1.64-7.72,1.65-2.37,0-3.06-.7-2.06-2.15.25-.36,1.91-2.03,4.99-5.01s7.33-7.17,12.77-12.59c4.43-3.97,8.64-7.85,12.62-11.65,3.97-3.79,8.01-7.67,12.11-11.64,8.48-8.84,15.37-16.6,20.67-23.27-8.7,1.83-18.76,4.79-30.2,8.88-11.44,4.09-24.54,9.22-39.26,15.39-13.35,5.63-25.21,10.93-35.58,15.92-10.38,4.99-19.26,9.65-26.65,13.99-8.11,4.89-15.29,10.13-21.52,15.73-3.35,2.89-6.38,4.34-9.09,4.35ZM1050.02,139.36l10.75-8.94c-2.2.73-6.03,1.64-11.52,2.74l.77,6.2Z"/>
        <path class="cls-7" d="M171.7,446.38c-48.4.19-85.35-5.78-110.87-17.92-32.08-14.87-39.91-36.57-23.5-65.1,16.59-28.83,51.45-54.53,104.58-77.09,50.2-21.62,98.31-32.53,144.3-32.71,19.64-.08,28.76,1.11,27.35,3.56-.71,1.23-8.16,1.72-22.35,1.47-46.48.19-90.17,9.24-131.06,27.15-43.53,19.16-73.58,43.15-90.17,71.98-14.83,25.77-13.24,46.27,4.77,61.5,18,15.23,47.6,22.76,88.82,22.6,34.5-.14,76.4-5.66,125.69-16.57,86.51-19.94,141.51-50.3,164.99-91.1,13.77-23.93,8.25-44.26-16.53-60.99l-72.82-39.19c-24.67-16.12-31.26-34.15-19.79-54.1,8.29-14.42,23.85-27.33,46.67-38.75-15.87.98-31.25,5.71-46.17,14.19-14.92,8.48-25.29,17.78-31.11,27.9-12.36,21.48-7.8,40.13,13.7,55.96l66.16,38.3c23.4,15.82,30.78,34.16,22.13,55,13.11-6.17,22.3-9.27,27.57-9.29,3.83-.02,4.69,1.82,2.57,5.5-6.18,10.74-24.54,22.29-55.07,34.65-20.78,17.84-51.13,34.03-91.04,48.57-38.78,14.23-73.27,21.41-103.45,21.53-2.4,0-3.33-.45-2.8-1.37,1.06-1.84,3.5-2.77,7.34-2.78l28.9-2.87c24.81-4.08,50.42-11.61,76.8-22.57,26.39-10.97,48.25-23.22,65.61-36.76-5.53-7.02-5.55-15.28-.08-24.79,6-10.43,13.07-15.66,21.22-15.69,3.83-.02,6.8,1.05,8.93,3.18,3.73-9.81,3.72-19.14-.02-28.01-3.75-8.86-11.74-16.78-23.96-23.78l-63.36-36.93c-20.36-16.14-24.17-35.25-11.47-57.34,7.06-12.27,19.54-22.95,37.45-32.06,17.89-9.1,36.43-13.69,55.6-13.77h1.44c47.98-21.93,101.92-33.01,161.82-33.25,51.75-.21,83.35,7.17,94.83,22.12,4.36,4.88,4.78,10.39,1.25,16.52-6,10.43-21.05,18.3-45.12,23.59-16.97,3.74-35.52,5.65-55.64,5.73-9.59.04-19.39-.38-29.39-1.26-10.01-.88-20.57-2.06-31.66-3.55-24.84-4.18-41.58-9.17-50.2-14.95-.61-.61-.82-1.07-.64-1.37.53-.92,1.51-1.38,2.95-1.39,1.44,0,2.3.15,2.61.45,21.56,11.55,57.25,17.22,107.09,17.02,15.81-.06,31.15-1.8,46.03-5.23,19.24-4.36,31.33-10.84,36.27-19.43,6.71-11.66-1.45-20.35-24.44-26.07-17.65-4.21-36.79-6.28-57.38-6.2-62.77.25-113.06,13.31-150.88,39.17-12.26,8.01-21.12,16.77-26.59,26.28-10.95,19.02-3.83,36.13,21.38,51.33l72.63,38.27c23.6,17.97,27.82,40.14,12.64,66.52-20.48,35.59-65.73,64.39-135.75,86.4-58.81,18.29-118.39,27.56-178.76,27.8Z"/>
      </g>
      <g>
        <path class="cls-6" d="M201.06,509.27c-30.78,33.93-51.87,96.83-61.56,145.24-10.83,54.07-13.19,109.2,0,162.21,97.47-.71,194.94-1.41,292.41-2.12,5.54-34.34,12.56-108.86-21.99-192.95-26.26-63.93-65.44-106.4-90.14-129.34-2.11,3.41-20.34,31.72-57.16,36.05-34.45,4.04-58.14-16.08-61.56-19.08Z"/>
        <ellipse class="cls-6" cx="252.17" cy="431.35" rx="75.3" ry="72.62"/>
        <path class="cls-6" d="M749.6,325.86c-10.03,1.22-19.91,2.58-29.65,4.07-4.41-9.08-8.3-16.97-11.49-23.43-5.07-10.23-15.68-16.82-27.43-17.03-4.49-.08-8.98-.16-13.48-.24-15.24-.27-28.42,10.17-31.12,24.64-.02.11-.04.21-.06.32-2.27,12.14-4.63,23.4-7.07,33.99-133.24,33.51-230.74,88-285.34,122.91,14.35,8.83,35.3,24.18,53.87,48.77,26.01,34.44,41.15,60.7,43.78,78.74,35.93-39.87,78.79-78.69,146.32-120.42-10.12,27.74-21.08,58.69-32.9,98.93-25.21,85.85-26.54,119.46-26.38,138.88.35,42.32,8.32,77.14,15.39,100.72h367.16l-69.26-57.25c2.83-11.75,6.51-30.22,7.7-53.01,2.98-57.44-12.05-101.78-24.18-134.64-21.06-57.06-47.56-117.92-70.88-168.67,171.61-52.02,325.92-29.54,387.48-17.92,9.16-6.36,18.32-12.72,27.48-19.08-79.03-25.54-230.41-63.31-419.93-40.29Z"/>
      </g>
      <g>
        <path class="cls-4" d="M844.04,905.09c43.76-3.05,83.1-1.02,116.22,2.92-4.29,10.91-9.16,29.17-4.08,51.09,5.9,25.44,21.75,40.83,42.82,61.31,10.27,9.98,16.44,14.06,24.47,14.6,14.63.98,26.78-10.4,38.74-21.9,15.49-14.9,39.99-38.45,38.74-72.98-.51-14.03-5.12-25.93-10.19-35.03,38.06,1.95,76.12,3.89,114.18,5.84,27.72,35.1,21.44,60.99,18.35,70.06-13.45,39.44-70.3,64.71-85.64,71.52-37.03,16.46-63.12,17.58-71.36,35.03-2.24,4.74-5.04,14.67,10.19,37.95,10.94,16.71,34.86,45.94,87.67,72.98-36.59,3.37-79.9,5.52-128.45,4.38-52.36-1.23-98.42-6-136.61-11.68,36.15-21.6,55.26-44.02,65.25-58.39,13.26-19.06,26.13-37.58,16.31-54.01-8.67-14.51-27.49-14.8-63.21-30.65-6.95-3.08-51.64-23.26-77.48-51.09-10.57-11.38-32.95-40.16-26.51-89.04,9.76-1.18,19.96-2.18,30.58-2.92Z"/>
        <path class="cls-1" d="M841.41,928.97c-5.8-7.1-16.3-17.97-33.59-26.64-58.57-29.36-153.15-12.53-203.53,29.6-8.5,7.11-49.09,41.05-35.57,69.56,17.39,36.66,119.99,55.41,175.87,37,6.5-2.14,17.95-6.63,33.59-5.92,21.7.98,50.82,11.93,59.28,34.04,4.33,11.32,5.26,30.84-9.88,39.96-20.39,12.29-55.53-2.92-110.66-16.28-23.89-5.79-55.09-12.09-93.25-16.54-13.43-1.57-23,9.6-15.48,18.08,3.77,4.24,7.22,9.14,9.92,14.75,9.52,19.76,4.25,36.87,1.98,42.92,21.85,4.05,56.55,10.83,98.8,20.72,74.28,17.39,90.34,25.31,126.47,25.16,17.25-.07,87.73-.36,114.61-35.52,22.04-28.83,1.64-63.95-5.93-76.96-3.83-6.59-32.39-54.37-94.85-68.08-47.56-10.44-67.94,9.14-142.27-2.96-41.93-6.83-51.04-15.6-53.35-22.2-3.02-8.64,3.94-18.31,11.86-23.68,22.45-15.24,64.75-4.18,75.09-1.48,33.48,8.76,40.54,21.51,55.33,19.24,12.04-1.85,26.2-13.19,35.57-54.76Z"/>
        <path class="cls-3" d="M669.83,981.26c-22.18-29.03-41.18-53.9-82.18-68.03-70.09-24.17-142.42,4.42-151.39,8.1-74.11,30.39-94.97,91.21-108.14,129.59-18.11,52.79-12.55,100.62-2.16,136.07,36.77-1.62,73.53-3.24,110.3-4.86,4.33-13.5,8.65-27,12.98-40.5,36.77-.54,73.53-1.08,110.3-1.62-3.6,12.96-7.21,25.92-10.81,38.88,49.74-3.24,99.49-6.48,149.23-9.72,3.35-7.78,7.78-19.5,10.81-34.02,16.32-78.02-27.87-139.41-38.93-153.89ZM585.49,1093.03c-14.07,6.47-27.14-8.79-69.21-9.72-32.44-.72-43.24,7.95-54.07,1.62-16.92-9.89-9.68-42.19,8.65-63.18,5.35-6.12,26.62-30.47,58.39-29.16,25.14,1.04,41.01,17.49,47.58,24.3,25.27,26.18,28.48,67.01,8.65,76.13Z"/>
        <path class="cls-2" d="M416.96,903.61c-.81,4.99-32.1,11.3-53.54,27.44-13.54,10.19-33.4,32.68-35.18,40.74-15.62-5.31-44.42-12.68-75.23-5.93-9.64,2.11-26.22,5.74-29.7,14.83-4.77,12.47,18.4,26.65,25.74,31.14,18.18,11.13,38.14,14.92,51.47,16.31-14.02,2.12-34.64,7.03-53.45,19.28-10.87,7.08-33.93,22.09-29.7,38.55,3.72,14.48,26.45,21.85,27.72,22.24,31.1,9.7,51.81-10.53,112.85-22.24,23.06-4.42,68.21-12.67,116.81-1.48,30.16,6.94,51.91,19.12,65.33,28.17-16.5,24.71-33,49.43-49.49,74.14-10.01-6.64-25.84-15.47-47.51-20.76-48.19-11.77-81.96,4.49-146.5,14.83-59.63,9.55-125.4,20.09-174.22-4.45-32.32-16.24-60.04-49.28-53.45-84.52,8.09-43.27,63.16-64.46,69.29-66.73,15.26-5.64,29.44-7.91,39.6-8.9-52.64-10.42-88.89-34.62-89.09-57.83-.3-35.9,85.73-55.41,102.95-59.31,103.85-23.55,226.94-5.44,225.32,4.48Z"/>
      </g>
    </g>
  </g>
</svg>